<svg xmlns="http://www.w3.org/2000/svg" width="820" height="405" viewBox="0 0 820 405">
<rect width="820" height="405" fill="#f9fbfd"/>
<text x="28" y="34" font-size="22" fill="#243447">Band-mean reflectance vs Adam updates</text>
<line x1="88" y1="330.0" x2="765" y2="330.0" stroke="#d9e2ea"/>
<text x="16" y="335.0" font-size="13" fill="#556677">18.55%</text>
<line x1="88" y1="278.4" x2="765" y2="278.4" stroke="#d9e2ea"/>
<text x="16" y="283.4" font-size="13" fill="#556677">20.13%</text>
<line x1="88" y1="226.8" x2="765" y2="226.8" stroke="#d9e2ea"/>
<text x="16" y="231.8" font-size="13" fill="#556677">21.71%</text>
<line x1="88" y1="175.2" x2="765" y2="175.2" stroke="#d9e2ea"/>
<text x="16" y="180.2" font-size="13" fill="#556677">23.29%</text>
<line x1="88" y1="123.6" x2="765" y2="123.6" stroke="#d9e2ea"/>
<text x="16" y="128.6" font-size="13" fill="#556677">24.87%</text>
<line x1="88" y1="72.0" x2="765" y2="72.0" stroke="#d9e2ea"/>
<text x="16" y="77.0" font-size="13" fill="#556677">26.45%</text>
<text x="88.0" y="356" text-anchor="middle" font-size="13" fill="#556677">0</text>
<text x="257.2" y="356" text-anchor="middle" font-size="13" fill="#556677">3</text>
<text x="426.5" y="356" text-anchor="middle" font-size="13" fill="#556677">6</text>
<text x="595.8" y="356" text-anchor="middle" font-size="13" fill="#556677">9</text>
<text x="765.0" y="356" text-anchor="middle" font-size="13" fill="#556677">12</text>
<polyline fill="none" stroke="#1368aa" stroke-width="2.5" points="88.00,104.66 88.00,294.97 144.42,290.58 200.83,297.34"/>
<circle cx="88.00" cy="104.66" r="4" fill="#1368aa"/>
<circle cx="88.00" cy="294.97" r="4" fill="#1368aa"/>
<circle cx="144.42" cy="290.58" r="4" fill="#1368aa"/>
<circle cx="200.83" cy="297.34" r="4" fill="#1368aa"/>
<polyline fill="none" stroke="#c26610" stroke-width="2" stroke-dasharray="6 4" points="88.00,104.66 88.00,294.97 144.42,294.97 200.83,297.34"/>
<text x="95" y="389" font-size="14" fill="#1368aa">full-band evaluation</text>
<text x="360" y="389" font-size="14" fill="#c26610">best so far</text>
</svg>