<svg xmlns="http://www.w3.org/2000/svg" width="720" height="700" viewBox="0 0 720 700">
<rect width="720" height="700" fill="#f9fbfd"/>
<text x="24" y="34" font-size="22" fill="#233142">cone: 100-layer Au profile</text>
<text x="24" y="60" font-size="14" fill="#445566">Period 200 nm; height 500 nm; tip/base diameter 10.000/190.000 nm</text>
<rect x="160" y="630" width="400" height="28" fill="#b18b00"/>
<rect x="348.555" y="90.000" width="22.890" height="5.450" fill="#d4aa00"/>
<rect x="346.665" y="95.400" width="26.670" height="5.450" fill="#d4aa00"/>
<rect x="344.775" y="100.800" width="30.450" height="5.450" fill="#d4aa00"/>
<rect x="342.885" y="106.200" width="34.230" height="5.450" fill="#d4aa00"/>
<rect x="340.995" y="111.600" width="38.010" height="5.450" fill="#d4aa00"/>
<rect x="339.105" y="117.000" width="41.790" height="5.450" fill="#d4aa00"/>
<rect x="337.215" y="122.400" width="45.570" height="5.450" fill="#d4aa00"/>
<rect x="335.325" y="127.800" width="49.350" height="5.450" fill="#d4aa00"/>
<rect x="333.435" y="133.200" width="53.130" height="5.450" fill="#d4aa00"/>
<rect x="331.545" y="138.600" width="56.910" height="5.450" fill="#d4aa00"/>
<rect x="329.655" y="144.000" width="60.690" height="5.450" fill="#d4aa00"/>
<rect x="327.765" y="149.400" width="64.470" height="5.450" fill="#d4aa00"/>
<rect x="325.875" y="154.800" width="68.250" height="5.450" fill="#d4aa00"/>
<rect x="323.985" y="160.200" width="72.030" height="5.450" fill="#d4aa00"/>
<rect x="322.095" y="165.600" width="75.810" height="5.450" fill="#d4aa00"/>
<rect x="320.205" y="171.000" width="79.590" height="5.450" fill="#d4aa00"/>
<rect x="318.315" y="176.400" width="83.370" height="5.450" fill="#d4aa00"/>
<rect x="316.425" y="181.800" width="87.150" height="5.450" fill="#d4aa00"/>
<rect x="314.535" y="187.200" width="90.930" height="5.450" fill="#d4aa00"/>
<rect x="312.645" y="192.600" width="94.710" height="5.450" fill="#d4aa00"/>
<rect x="310.755" y="198.000" width="98.490" height="5.450" fill="#d4aa00"/>
<rect x="308.865" y="203.400" width="102.270" height="5.450" fill="#d4aa00"/>
<rect x="306.975" y="208.800" width="106.050" height="5.450" fill="#d4aa00"/>
<rect x="305.085" y="214.200" width="109.830" height="5.450" fill="#d4aa00"/>
<rect x="303.195" y="219.600" width="113.610" height="5.450" fill="#d4aa00"/>
<rect x="301.305" y="225.000" width="117.390" height="5.450" fill="#d4aa00"/>
<rect x="299.415" y="230.400" width="121.170" height="5.450" fill="#d4aa00"/>
<rect x="297.525" y="235.800" width="124.950" height="5.450" fill="#d4aa00"/>
<rect x="295.635" y="241.200" width="128.730" height="5.450" fill="#d4aa00"/>
<rect x="293.745" y="246.600" width="132.510" height="5.450" fill="#d4aa00"/>
<rect x="291.855" y="252.000" width="136.290" height="5.450" fill="#d4aa00"/>
<rect x="289.965" y="257.400" width="140.070" height="5.450" fill="#d4aa00"/>
<rect x="288.075" y="262.800" width="143.850" height="5.450" fill="#d4aa00"/>
<rect x="286.185" y="268.200" width="147.630" height="5.450" fill="#d4aa00"/>
<rect x="284.295" y="273.600" width="151.410" height="5.450" fill="#d4aa00"/>
<rect x="282.405" y="279.000" width="155.190" height="5.450" fill="#d4aa00"/>
<rect x="280.515" y="284.400" width="158.970" height="5.450" fill="#d4aa00"/>
<rect x="278.625" y="289.800" width="162.750" height="5.450" fill="#d4aa00"/>
<rect x="276.735" y="295.200" width="166.530" height="5.450" fill="#d4aa00"/>
<rect x="274.845" y="300.600" width="170.310" height="5.450" fill="#d4aa00"/>
<rect x="272.955" y="306.000" width="174.090" height="5.450" fill="#d4aa00"/>
<rect x="271.065" y="311.400" width="177.870" height="5.450" fill="#d4aa00"/>
<rect x="269.175" y="316.800" width="181.650" height="5.450" fill="#d4aa00"/>
<rect x="267.285" y="322.200" width="185.430" height="5.450" fill="#d4aa00"/>
<rect x="265.395" y="327.600" width="189.210" height="5.450" fill="#d4aa00"/>
<rect x="263.505" y="333.000" width="192.990" height="5.450" fill="#d4aa00"/>
<rect x="261.615" y="338.400" width="196.770" height="5.450" fill="#d4aa00"/>
<rect x="259.725" y="343.800" width="200.550" height="5.450" fill="#d4aa00"/>
<rect x="257.835" y="349.200" width="204.330" height="5.450" fill="#d4aa00"/>
<rect x="255.945" y="354.600" width="208.110" height="5.450" fill="#d4aa00"/>
<rect x="254.055" y="360.000" width="211.890" height="5.450" fill="#d4aa00"/>
<rect x="252.165" y="365.400" width="215.670" height="5.450" fill="#d4aa00"/>
<rect x="250.275" y="370.800" width="219.450" height="5.450" fill="#d4aa00"/>
<rect x="248.385" y="376.200" width="223.230" height="5.450" fill="#d4aa00"/>
<rect x="246.495" y="381.600" width="227.010" height="5.450" fill="#d4aa00"/>
<rect x="244.605" y="387.000" width="230.790" height="5.450" fill="#d4aa00"/>
<rect x="242.715" y="392.400" width="234.570" height="5.450" fill="#d4aa00"/>
<rect x="240.825" y="397.800" width="238.350" height="5.450" fill="#d4aa00"/>
<rect x="238.935" y="403.200" width="242.130" height="5.450" fill="#d4aa00"/>
<rect x="237.045" y="408.600" width="245.910" height="5.450" fill="#d4aa00"/>
<rect x="235.155" y="414.000" width="249.690" height="5.450" fill="#d4aa00"/>
<rect x="233.265" y="419.400" width="253.470" height="5.450" fill="#d4aa00"/>
<rect x="231.375" y="424.800" width="257.250" height="5.450" fill="#d4aa00"/>
<rect x="229.485" y="430.200" width="261.030" height="5.450" fill="#d4aa00"/>
<rect x="227.595" y="435.600" width="264.810" height="5.450" fill="#d4aa00"/>
<rect x="225.705" y="441.000" width="268.590" height="5.450" fill="#d4aa00"/>
<rect x="223.815" y="446.400" width="272.370" height="5.450" fill="#d4aa00"/>
<rect x="221.925" y="451.800" width="276.150" height="5.450" fill="#d4aa00"/>
<rect x="220.035" y="457.200" width="279.930" height="5.450" fill="#d4aa00"/>
<rect x="218.145" y="462.600" width="283.710" height="5.450" fill="#d4aa00"/>
<rect x="216.255" y="468.000" width="287.490" height="5.450" fill="#d4aa00"/>
<rect x="214.365" y="473.400" width="291.270" height="5.450" fill="#d4aa00"/>
<rect x="212.475" y="478.800" width="295.050" height="5.450" fill="#d4aa00"/>
<rect x="210.585" y="484.200" width="298.830" height="5.450" fill="#d4aa00"/>
<rect x="208.695" y="489.600" width="302.610" height="5.450" fill="#d4aa00"/>
<rect x="206.805" y="495.000" width="306.390" height="5.450" fill="#d4aa00"/>
<rect x="204.915" y="500.400" width="310.170" height="5.450" fill="#d4aa00"/>
<rect x="203.025" y="505.800" width="313.950" height="5.450" fill="#d4aa00"/>
<rect x="201.135" y="511.200" width="317.730" height="5.450" fill="#d4aa00"/>
<rect x="199.245" y="516.600" width="321.510" height="5.450" fill="#d4aa00"/>
<rect x="197.355" y="522.000" width="325.290" height="5.450" fill="#d4aa00"/>
<rect x="195.465" y="527.400" width="329.070" height="5.450" fill="#d4aa00"/>
<rect x="193.575" y="532.800" width="332.850" height="5.450" fill="#d4aa00"/>
<rect x="191.685" y="538.200" width="336.630" height="5.450" fill="#d4aa00"/>
<rect x="189.795" y="543.600" width="340.410" height="5.450" fill="#d4aa00"/>
<rect x="187.905" y="549.000" width="344.190" height="5.450" fill="#d4aa00"/>
<rect x="186.015" y="554.400" width="347.970" height="5.450" fill="#d4aa00"/>
<rect x="184.125" y="559.800" width="351.750" height="5.450" fill="#d4aa00"/>
<rect x="182.235" y="565.200" width="355.530" height="5.450" fill="#d4aa00"/>
<rect x="180.345" y="570.600" width="359.310" height="5.450" fill="#d4aa00"/>
<rect x="178.455" y="576.000" width="363.090" height="5.450" fill="#d4aa00"/>
<rect x="176.565" y="581.400" width="366.870" height="5.450" fill="#d4aa00"/>
<rect x="174.675" y="586.800" width="370.650" height="5.450" fill="#d4aa00"/>
<rect x="172.785" y="592.200" width="374.430" height="5.450" fill="#d4aa00"/>
<rect x="170.895" y="597.600" width="378.210" height="5.450" fill="#d4aa00"/>
<rect x="169.005" y="603.000" width="381.990" height="5.450" fill="#d4aa00"/>
<rect x="167.115" y="608.400" width="385.770" height="5.450" fill="#d4aa00"/>
<rect x="165.225" y="613.800" width="389.550" height="5.450" fill="#d4aa00"/>
<rect x="163.335" y="619.200" width="393.330" height="5.450" fill="#d4aa00"/>
<rect x="161.445" y="624.600" width="397.110" height="5.450" fill="#d4aa00"/>
<text x="570" y="114" font-size="15">air / tip</text>
<text x="570" y="620" font-size="15">Au substrate</text>
<text x="24" y="686" font-size="13" fill="#445566">Axial cross section; each rectangle is one constant-radius computational layer.</text>
</svg>