<svg xmlns="http://www.w3.org/2000/svg" viewBox="0 0 1250 745" width="1250" height="745" role="img">
<rect width="100%" height="100%" fill="white"/>
<g font-family="Arial, Helvetica, sans-serif">
<text x="50.0" y="55.0" text-anchor="start" font-size="29" font-weight="bold" fill="#182235">Reflectance convergence vs Fourier order</text>
<text x="50.0" y="87.0" text-anchor="start" font-size="17" font-weight="normal" fill="#182235">Fixed Nz=15, grid=256; gold: measured n,k; tolerance 0.5 percentage points</text>
<text x="50.0" y="118.0" text-anchor="start" font-size="15" font-weight="normal" fill="#475569">Each panel uses its own vertical scale; markers are calculated orders.</text>
<text x="1200.0" y="55.0" text-anchor="end" font-size="15" font-weight="bold" fill="#b91c1c">NOT CONVERGED</text>
<text x="76.0" y="185.0" text-anchor="start" font-size="21" font-weight="bold" fill="#182235">400 nm</text>
<rect x="76" y="213.22" width="306" height="371.78" fill="#dbeafe" opacity="0.68"/>
<line x1="76.00" y1="585.00" x2="382.00" y2="585.00" stroke="#e2e8f0" stroke-width="1"/>
<text x="66.0" y="590.0" text-anchor="end" font-size="12" font-weight="normal" fill="#475569">0.00%</text>
<line x1="76.00" y1="491.25" x2="382.00" y2="491.25" stroke="#e2e8f0" stroke-width="1"/>
<text x="66.0" y="496.2" text-anchor="end" font-size="12" font-weight="normal" fill="#475569">0.13%</text>
<line x1="76.00" y1="397.50" x2="382.00" y2="397.50" stroke="#e2e8f0" stroke-width="1"/>
<text x="66.0" y="402.5" text-anchor="end" font-size="12" font-weight="normal" fill="#475569">0.26%</text>
<line x1="76.00" y1="303.75" x2="382.00" y2="303.75" stroke="#e2e8f0" stroke-width="1"/>
<text x="66.0" y="308.8" text-anchor="end" font-size="12" font-weight="normal" fill="#475569">0.39%</text>
<line x1="76.00" y1="210.00" x2="382.00" y2="210.00" stroke="#e2e8f0" stroke-width="1"/>
<text x="66.0" y="215.0" text-anchor="end" font-size="12" font-weight="normal" fill="#475569">0.52%</text>
<line x1="76.00" y1="210.00" x2="76.00" y2="585.00" stroke="#64748b" stroke-width="1"/>
<line x1="76.00" y1="585.00" x2="382.00" y2="585.00" stroke="#64748b" stroke-width="1"/>
<line x1="76.00" y1="585.00" x2="76.00" y2="590.00" stroke="#64748b" stroke-width="1"/>
<text x="76.0" y="609.0" text-anchor="middle" font-size="12" font-weight="normal" fill="#182235">4</text>
<line x1="99.54" y1="585.00" x2="99.54" y2="590.00" stroke="#64748b" stroke-width="1"/>
<text x="99.5" y="609.0" text-anchor="middle" font-size="12" font-weight="normal" fill="#182235">6</text>
<line x1="123.08" y1="585.00" x2="123.08" y2="590.00" stroke="#64748b" stroke-width="1"/>
<text x="123.1" y="609.0" text-anchor="middle" font-size="12" font-weight="normal" fill="#182235">8</text>
<line x1="146.62" y1="585.00" x2="146.62" y2="590.00" stroke="#64748b" stroke-width="1"/>
<text x="146.6" y="609.0" text-anchor="middle" font-size="12" font-weight="normal" fill="#182235">10</text>
<line x1="170.15" y1="585.00" x2="170.15" y2="590.00" stroke="#64748b" stroke-width="1"/>
<text x="170.2" y="609.0" text-anchor="middle" font-size="12" font-weight="normal" fill="#182235">12</text>
<line x1="193.69" y1="585.00" x2="193.69" y2="590.00" stroke="#64748b" stroke-width="1"/>
<text x="193.7" y="609.0" text-anchor="middle" font-size="12" font-weight="normal" fill="#182235">14</text>
<line x1="217.23" y1="585.00" x2="217.23" y2="590.00" stroke="#64748b" stroke-width="1"/>
<text x="217.2" y="609.0" text-anchor="middle" font-size="12" font-weight="normal" fill="#182235">16</text>
<line x1="240.77" y1="585.00" x2="240.77" y2="590.00" stroke="#64748b" stroke-width="1"/>
<text x="240.8" y="609.0" text-anchor="middle" font-size="12" font-weight="normal" fill="#182235">18</text>
<line x1="264.31" y1="585.00" x2="264.31" y2="590.00" stroke="#64748b" stroke-width="1"/>
<text x="264.3" y="609.0" text-anchor="middle" font-size="12" font-weight="normal" fill="#182235">20</text>
<line x1="287.85" y1="585.00" x2="287.85" y2="590.00" stroke="#64748b" stroke-width="1"/>
<text x="287.8" y="609.0" text-anchor="middle" font-size="12" font-weight="normal" fill="#182235">22</text>
<line x1="311.38" y1="585.00" x2="311.38" y2="590.00" stroke="#64748b" stroke-width="1"/>
<text x="311.4" y="609.0" text-anchor="middle" font-size="12" font-weight="normal" fill="#182235">24</text>
<line x1="334.92" y1="585.00" x2="334.92" y2="590.00" stroke="#64748b" stroke-width="1"/>
<text x="334.9" y="609.0" text-anchor="middle" font-size="12" font-weight="normal" fill="#182235">26</text>
<line x1="358.46" y1="585.00" x2="358.46" y2="590.00" stroke="#64748b" stroke-width="1"/>
<text x="358.5" y="609.0" text-anchor="middle" font-size="12" font-weight="normal" fill="#182235">28</text>
<line x1="382.00" y1="585.00" x2="382.00" y2="590.00" stroke="#64748b" stroke-width="1"/>
<text x="382.0" y="609.0" text-anchor="middle" font-size="12" font-weight="normal" fill="#182235">30</text>
<polyline points="76.00,584.45 99.54,579.08 123.08,575.27 146.62,575.73 170.15,574.40 193.69,576.49 217.23,575.94 240.77,575.39 264.31,573.70 287.85,574.90 311.38,573.78 334.92,570.94 358.46,571.73 382.00,574.16" fill="none" stroke="#1d4ed8" stroke-width="2.7"/>
<circle cx="76.00" cy="584.45" r="4.5" fill="#1d4ed8"/>
<circle cx="99.54" cy="579.08" r="4.5" fill="#1d4ed8"/>
<circle cx="123.08" cy="575.27" r="4.5" fill="#1d4ed8"/>
<circle cx="146.62" cy="575.73" r="4.5" fill="#1d4ed8"/>
<circle cx="170.15" cy="574.40" r="4.5" fill="#1d4ed8"/>
<circle cx="193.69" cy="576.49" r="4.5" fill="#1d4ed8"/>
<circle cx="217.23" cy="575.94" r="4.5" fill="#1d4ed8"/>
<circle cx="240.77" cy="575.39" r="4.5" fill="#1d4ed8"/>
<circle cx="264.31" cy="573.70" r="4.5" fill="#1d4ed8"/>
<circle cx="287.85" cy="574.90" r="4.5" fill="#1d4ed8"/>
<circle cx="311.38" cy="573.78" r="4.5" fill="#1d4ed8"/>
<circle cx="334.92" cy="570.94" r="4.5" fill="#1d4ed8"/>
<circle cx="358.46" cy="571.73" r="4.5" fill="#1d4ed8"/>
<circle cx="382.00" cy="574.16" r="4.5" fill="#1d4ed8"/>
<text x="76.0" y="646.0" text-anchor="start" font-size="13" font-weight="bold" fill="#15803d">Last two changes: 0.001, 0.003 pp  PASS</text>
<text x="466.0" y="185.0" text-anchor="start" font-size="21" font-weight="bold" fill="#182235">550 nm</text>
<rect x="466" y="463.21" width="306" height="68.39" fill="#dbeafe" opacity="0.68"/>
<line x1="466.00" y1="585.00" x2="772.00" y2="585.00" stroke="#e2e8f0" stroke-width="1"/>
<text x="456.0" y="590.0" text-anchor="end" font-size="12" font-weight="normal" fill="#475569">1.04%</text>
<line x1="466.00" y1="491.25" x2="772.00" y2="491.25" stroke="#e2e8f0" stroke-width="1"/>
<text x="456.0" y="496.2" text-anchor="end" font-size="12" font-weight="normal" fill="#475569">2.41%</text>
<line x1="466.00" y1="397.50" x2="772.00" y2="397.50" stroke="#e2e8f0" stroke-width="1"/>
<text x="456.0" y="402.5" text-anchor="end" font-size="12" font-weight="normal" fill="#475569">3.79%</text>
<line x1="466.00" y1="303.75" x2="772.00" y2="303.75" stroke="#e2e8f0" stroke-width="1"/>
<text x="456.0" y="308.8" text-anchor="end" font-size="12" font-weight="normal" fill="#475569">5.16%</text>
<line x1="466.00" y1="210.00" x2="772.00" y2="210.00" stroke="#e2e8f0" stroke-width="1"/>
<text x="456.0" y="215.0" text-anchor="end" font-size="12" font-weight="normal" fill="#475569">6.53%</text>
<line x1="466.00" y1="210.00" x2="466.00" y2="585.00" stroke="#64748b" stroke-width="1"/>
<line x1="466.00" y1="585.00" x2="772.00" y2="585.00" stroke="#64748b" stroke-width="1"/>
<line x1="466.00" y1="585.00" x2="466.00" y2="590.00" stroke="#64748b" stroke-width="1"/>
<text x="466.0" y="609.0" text-anchor="middle" font-size="12" font-weight="normal" fill="#182235">4</text>
<line x1="489.54" y1="585.00" x2="489.54" y2="590.00" stroke="#64748b" stroke-width="1"/>
<text x="489.5" y="609.0" text-anchor="middle" font-size="12" font-weight="normal" fill="#182235">6</text>
<line x1="513.08" y1="585.00" x2="513.08" y2="590.00" stroke="#64748b" stroke-width="1"/>
<text x="513.1" y="609.0" text-anchor="middle" font-size="12" font-weight="normal" fill="#182235">8</text>
<line x1="536.62" y1="585.00" x2="536.62" y2="590.00" stroke="#64748b" stroke-width="1"/>
<text x="536.6" y="609.0" text-anchor="middle" font-size="12" font-weight="normal" fill="#182235">10</text>
<line x1="560.15" y1="585.00" x2="560.15" y2="590.00" stroke="#64748b" stroke-width="1"/>
<text x="560.2" y="609.0" text-anchor="middle" font-size="12" font-weight="normal" fill="#182235">12</text>
<line x1="583.69" y1="585.00" x2="583.69" y2="590.00" stroke="#64748b" stroke-width="1"/>
<text x="583.7" y="609.0" text-anchor="middle" font-size="12" font-weight="normal" fill="#182235">14</text>
<line x1="607.23" y1="585.00" x2="607.23" y2="590.00" stroke="#64748b" stroke-width="1"/>
<text x="607.2" y="609.0" text-anchor="middle" font-size="12" font-weight="normal" fill="#182235">16</text>
<line x1="630.77" y1="585.00" x2="630.77" y2="590.00" stroke="#64748b" stroke-width="1"/>
<text x="630.8" y="609.0" text-anchor="middle" font-size="12" font-weight="normal" fill="#182235">18</text>
<line x1="654.31" y1="585.00" x2="654.31" y2="590.00" stroke="#64748b" stroke-width="1"/>
<text x="654.3" y="609.0" text-anchor="middle" font-size="12" font-weight="normal" fill="#182235">20</text>
<line x1="677.85" y1="585.00" x2="677.85" y2="590.00" stroke="#64748b" stroke-width="1"/>
<text x="677.8" y="609.0" text-anchor="middle" font-size="12" font-weight="normal" fill="#182235">22</text>
<line x1="701.38" y1="585.00" x2="701.38" y2="590.00" stroke="#64748b" stroke-width="1"/>
<text x="701.4" y="609.0" text-anchor="middle" font-size="12" font-weight="normal" fill="#182235">24</text>
<line x1="724.92" y1="585.00" x2="724.92" y2="590.00" stroke="#64748b" stroke-width="1"/>
<text x="724.9" y="609.0" text-anchor="middle" font-size="12" font-weight="normal" fill="#182235">26</text>
<line x1="748.46" y1="585.00" x2="748.46" y2="590.00" stroke="#64748b" stroke-width="1"/>
<text x="748.5" y="609.0" text-anchor="middle" font-size="12" font-weight="normal" fill="#182235">28</text>
<line x1="772.00" y1="585.00" x2="772.00" y2="590.00" stroke="#64748b" stroke-width="1"/>
<text x="772.0" y="609.0" text-anchor="middle" font-size="12" font-weight="normal" fill="#182235">30</text>
<polyline points="466.00,259.63 489.54,369.77 513.08,470.58 536.62,502.44 560.15,510.39 583.69,535.37 607.23,501.16 630.77,485.37 654.31,478.12 677.85,455.43 701.38,440.52 724.92,487.57 748.46,487.36 772.00,497.41" fill="none" stroke="#ea580c" stroke-width="2.7"/>
<circle cx="466.00" cy="259.63" r="4.5" fill="#ea580c"/>
<circle cx="489.54" cy="369.77" r="4.5" fill="#ea580c"/>
<circle cx="513.08" cy="470.58" r="4.5" fill="#ea580c"/>
<circle cx="536.62" cy="502.44" r="4.5" fill="#ea580c"/>
<circle cx="560.15" cy="510.39" r="4.5" fill="#ea580c"/>
<circle cx="583.69" cy="535.37" r="4.5" fill="#ea580c"/>
<circle cx="607.23" cy="501.16" r="4.5" fill="#ea580c"/>
<circle cx="630.77" cy="485.37" r="4.5" fill="#ea580c"/>
<circle cx="654.31" cy="478.12" r="4.5" fill="#ea580c"/>
<circle cx="677.85" cy="455.43" r="4.5" fill="#ea580c"/>
<circle cx="701.38" cy="440.52" r="4.5" fill="#ea580c"/>
<circle cx="724.92" cy="487.57" r="4.5" fill="#ea580c"/>
<circle cx="748.46" cy="487.36" r="4.5" fill="#ea580c"/>
<circle cx="772.00" cy="497.41" r="4.5" fill="#ea580c"/>
<text x="466.0" y="646.0" text-anchor="start" font-size="13" font-weight="bold" fill="#15803d">Last two changes: 0.003, 0.147 pp  PASS</text>
<text x="856.0" y="185.0" text-anchor="start" font-size="21" font-weight="bold" fill="#182235">700 nm</text>
<rect x="856" y="377.90" width="306" height="6.62" fill="#dbeafe" opacity="0.68"/>
<line x1="856.00" y1="585.00" x2="1162.00" y2="585.00" stroke="#e2e8f0" stroke-width="1"/>
<text x="846.0" y="590.0" text-anchor="end" font-size="12" font-weight="normal" fill="#475569">38.62%</text>
<line x1="856.00" y1="491.25" x2="1162.00" y2="491.25" stroke="#e2e8f0" stroke-width="1"/>
<text x="846.0" y="496.2" text-anchor="end" font-size="12" font-weight="normal" fill="#475569">52.78%</text>
<line x1="856.00" y1="397.50" x2="1162.00" y2="397.50" stroke="#e2e8f0" stroke-width="1"/>
<text x="846.0" y="402.5" text-anchor="end" font-size="12" font-weight="normal" fill="#475569">66.94%</text>
<line x1="856.00" y1="303.75" x2="1162.00" y2="303.75" stroke="#e2e8f0" stroke-width="1"/>
<text x="846.0" y="308.8" text-anchor="end" font-size="12" font-weight="normal" fill="#475569">81.10%</text>
<line x1="856.00" y1="210.00" x2="1162.00" y2="210.00" stroke="#e2e8f0" stroke-width="1"/>
<text x="846.0" y="215.0" text-anchor="end" font-size="12" font-weight="normal" fill="#475569">95.26%</text>
<line x1="856.00" y1="210.00" x2="856.00" y2="585.00" stroke="#64748b" stroke-width="1"/>
<line x1="856.00" y1="585.00" x2="1162.00" y2="585.00" stroke="#64748b" stroke-width="1"/>
<line x1="856.00" y1="585.00" x2="856.00" y2="590.00" stroke="#64748b" stroke-width="1"/>
<text x="856.0" y="609.0" text-anchor="middle" font-size="12" font-weight="normal" fill="#182235">4</text>
<line x1="879.54" y1="585.00" x2="879.54" y2="590.00" stroke="#64748b" stroke-width="1"/>
<text x="879.5" y="609.0" text-anchor="middle" font-size="12" font-weight="normal" fill="#182235">6</text>
<line x1="903.08" y1="585.00" x2="903.08" y2="590.00" stroke="#64748b" stroke-width="1"/>
<text x="903.1" y="609.0" text-anchor="middle" font-size="12" font-weight="normal" fill="#182235">8</text>
<line x1="926.62" y1="585.00" x2="926.62" y2="590.00" stroke="#64748b" stroke-width="1"/>
<text x="926.6" y="609.0" text-anchor="middle" font-size="12" font-weight="normal" fill="#182235">10</text>
<line x1="950.15" y1="585.00" x2="950.15" y2="590.00" stroke="#64748b" stroke-width="1"/>
<text x="950.2" y="609.0" text-anchor="middle" font-size="12" font-weight="normal" fill="#182235">12</text>
<line x1="973.69" y1="585.00" x2="973.69" y2="590.00" stroke="#64748b" stroke-width="1"/>
<text x="973.7" y="609.0" text-anchor="middle" font-size="12" font-weight="normal" fill="#182235">14</text>
<line x1="997.23" y1="585.00" x2="997.23" y2="590.00" stroke="#64748b" stroke-width="1"/>
<text x="997.2" y="609.0" text-anchor="middle" font-size="12" font-weight="normal" fill="#182235">16</text>
<line x1="1020.77" y1="585.00" x2="1020.77" y2="590.00" stroke="#64748b" stroke-width="1"/>
<text x="1020.8" y="609.0" text-anchor="middle" font-size="12" font-weight="normal" fill="#182235">18</text>
<line x1="1044.31" y1="585.00" x2="1044.31" y2="590.00" stroke="#64748b" stroke-width="1"/>
<text x="1044.3" y="609.0" text-anchor="middle" font-size="12" font-weight="normal" fill="#182235">20</text>
<line x1="1067.85" y1="585.00" x2="1067.85" y2="590.00" stroke="#64748b" stroke-width="1"/>
<text x="1067.8" y="609.0" text-anchor="middle" font-size="12" font-weight="normal" fill="#182235">22</text>
<line x1="1091.38" y1="585.00" x2="1091.38" y2="590.00" stroke="#64748b" stroke-width="1"/>
<text x="1091.4" y="609.0" text-anchor="middle" font-size="12" font-weight="normal" fill="#182235">24</text>
<line x1="1114.92" y1="585.00" x2="1114.92" y2="590.00" stroke="#64748b" stroke-width="1"/>
<text x="1114.9" y="609.0" text-anchor="middle" font-size="12" font-weight="normal" fill="#182235">26</text>
<line x1="1138.46" y1="585.00" x2="1138.46" y2="590.00" stroke="#64748b" stroke-width="1"/>
<text x="1138.5" y="609.0" text-anchor="middle" font-size="12" font-weight="normal" fill="#182235">28</text>
<line x1="1162.00" y1="585.00" x2="1162.00" y2="590.00" stroke="#64748b" stroke-width="1"/>
<text x="1162.0" y="609.0" text-anchor="middle" font-size="12" font-weight="normal" fill="#182235">30</text>
<polyline points="856.00,487.23 879.54,535.37 903.08,491.16 926.62,421.12 950.15,375.35 973.69,363.24 997.23,362.36 1020.77,339.98 1044.31,259.63 1067.85,318.97 1091.38,367.37 1114.92,335.06 1138.46,352.62 1162.00,381.21" fill="none" stroke="#16a34a" stroke-width="2.7"/>
<circle cx="856.00" cy="487.23" r="4.5" fill="#16a34a"/>
<circle cx="879.54" cy="535.37" r="4.5" fill="#16a34a"/>
<circle cx="903.08" cy="491.16" r="4.5" fill="#16a34a"/>
<circle cx="926.62" cy="421.12" r="4.5" fill="#16a34a"/>
<circle cx="950.15" cy="375.35" r="4.5" fill="#16a34a"/>
<circle cx="973.69" cy="363.24" r="4.5" fill="#16a34a"/>
<circle cx="997.23" cy="362.36" r="4.5" fill="#16a34a"/>
<circle cx="1020.77" cy="339.98" r="4.5" fill="#16a34a"/>
<circle cx="1044.31" cy="259.63" r="4.5" fill="#16a34a"/>
<circle cx="1067.85" cy="318.97" r="4.5" fill="#16a34a"/>
<circle cx="1091.38" cy="367.37" r="4.5" fill="#16a34a"/>
<circle cx="1114.92" cy="335.06" r="4.5" fill="#16a34a"/>
<circle cx="1138.46" cy="352.62" r="4.5" fill="#16a34a"/>
<circle cx="1162.00" cy="381.21" r="4.5" fill="#16a34a"/>
<text x="856.0" y="646.0" text-anchor="start" font-size="13" font-weight="bold" fill="#b91c1c">Last two changes: 2.653, 4.319 pp  FAIL</text>
<text x="625.0" y="707.0" text-anchor="middle" font-size="17" font-weight="normal" fill="#182235">Fourier order M</text>
<text x="50.0" y="730.0" text-anchor="start" font-size="13" font-weight="normal" fill="#475569">Blue band: +/- tolerance around the highest completed order in each panel.</text>
</g>
</svg>
