<svg xmlns="http://www.w3.org/2000/svg" viewBox="0 0 1320 815" width="1320" height="815" role="img">
<rect width="100%" height="100%" fill="#ffffff"/>
<g font-family="Arial, Helvetica, sans-serif">
<text x="48.0" y="55.0" font-size="30" fill="#182235" text-anchor="start" font-weight="bold">Chromium moth-eye | convergence</text>
<text x="48.0" y="86.0" font-size="17" fill="#182235" text-anchor="start" font-weight="normal">Maximum adjacent change over all anchor wavelengths and convergence observables</text>
<text x="48.0" y="114.0" font-size="16" fill="#182235" text-anchor="start" font-weight="normal">Criterion: upper-end two consecutive steps &lt;= 0.5 percentage points</text>
<text x="1270.0" y="56.0" font-size="17" fill="#b91c1c" text-anchor="end" font-weight="bold">CANDIDATE RANGE INSUFFICIENT</text>
<line x1="48.00" y1="173.00" x2="78.00" y2="173.00" stroke="#2563eb" stroke-width="3"/>
<circle cx="63.00" cy="173.00" r="4" fill="#2563eb"/>
<text x="87.0" y="178.0" font-size="14" fill="#182235" text-anchor="start" font-weight="normal">Cycle 1</text>
<line x1="173.00" y1="173.00" x2="203.00" y2="173.00" stroke="#7c3aed" stroke-width="3"/>
<circle cx="188.00" cy="173.00" r="4" fill="#7c3aed"/>
<text x="212.0" y="178.0" font-size="14" fill="#182235" text-anchor="start" font-weight="normal">Cycle 2</text>
<line x1="298.00" y1="173.00" x2="328.00" y2="173.00" stroke="#dc2626" stroke-width="3"/>
<circle cx="313.00" cy="173.00" r="4" fill="#dc2626"/>
<text x="337.0" y="178.0" font-size="14" fill="#182235" text-anchor="start" font-weight="normal">Cycle 3</text>
<text x="68.0" y="211.0" font-size="20" fill="#182235" text-anchor="start" font-weight="bold">Height slices Nz</text>
<line x1="68.00" y1="681.00" x2="412.00" y2="681.00" stroke="#e2e8f0" stroke-width="1"/>
<text x="59.0" y="686.0" font-size="12" fill="#475569" text-anchor="end" font-weight="normal">0.001</text>
<line x1="68.00" y1="590.80" x2="412.00" y2="590.80" stroke="#e2e8f0" stroke-width="1"/>
<text x="59.0" y="595.8" font-size="12" fill="#475569" text-anchor="end" font-weight="normal">0.01</text>
<line x1="68.00" y1="500.60" x2="412.00" y2="500.60" stroke="#e2e8f0" stroke-width="1"/>
<text x="59.0" y="505.6" font-size="12" fill="#475569" text-anchor="end" font-weight="normal">0.1</text>
<line x1="68.00" y1="410.40" x2="412.00" y2="410.40" stroke="#e2e8f0" stroke-width="1"/>
<text x="59.0" y="415.4" font-size="12" fill="#475569" text-anchor="end" font-weight="normal">1</text>
<line x1="68.00" y1="320.20" x2="412.00" y2="320.20" stroke="#e2e8f0" stroke-width="1"/>
<text x="59.0" y="325.2" font-size="12" fill="#475569" text-anchor="end" font-weight="normal">10</text>
<line x1="68.00" y1="230.00" x2="412.00" y2="230.00" stroke="#e2e8f0" stroke-width="1"/>
<text x="59.0" y="235.0" font-size="12" fill="#475569" text-anchor="end" font-weight="normal">100</text>
<line x1="68.00" y1="230.00" x2="68.00" y2="681.00" stroke="#64748b" stroke-width="1"/>
<line x1="68.00" y1="681.00" x2="412.00" y2="681.00" stroke="#64748b" stroke-width="1"/>
<line x1="68.00" y1="437.55" x2="412.00" y2="437.55" stroke="#111827" stroke-width="2" stroke-dasharray="7 5"/>
<line x1="102.40" y1="681.00" x2="102.40" y2="686.00" stroke="#64748b" stroke-width="1"/>
<text x="102.4" y="705.0" font-size="13" fill="#182235" text-anchor="middle" font-weight="normal">60</text>
<line x1="171.20" y1="681.00" x2="171.20" y2="686.00" stroke="#64748b" stroke-width="1"/>
<text x="171.2" y="705.0" font-size="13" fill="#182235" text-anchor="middle" font-weight="normal">70</text>
<line x1="240.00" y1="681.00" x2="240.00" y2="686.00" stroke="#64748b" stroke-width="1"/>
<text x="240.0" y="705.0" font-size="13" fill="#182235" text-anchor="middle" font-weight="normal">80</text>
<line x1="308.80" y1="681.00" x2="308.80" y2="686.00" stroke="#64748b" stroke-width="1"/>
<text x="308.8" y="705.0" font-size="13" fill="#182235" text-anchor="middle" font-weight="normal">90</text>
<line x1="377.60" y1="681.00" x2="377.60" y2="686.00" stroke="#64748b" stroke-width="1"/>
<text x="377.6" y="705.0" font-size="13" fill="#182235" text-anchor="middle" font-weight="normal">100</text>
<polyline points="102.40,503.69 171.20,534.16 240.00,546.37 308.80,550.30 377.60,574.42" fill="none" stroke="#2563eb" stroke-width="2.5"/>
<circle cx="102.40" cy="503.69" r="4" fill="#2563eb"/>
<circle cx="171.20" cy="534.16" r="4" fill="#2563eb"/>
<circle cx="240.00" cy="546.37" r="4" fill="#2563eb"/>
<circle cx="308.80" cy="550.30" r="4" fill="#2563eb"/>
<circle cx="377.60" cy="574.42" r="4" fill="#2563eb"/>
<polyline points="102.40,488.69 171.20,493.48 240.00,502.81 308.80,512.17 377.60,526.47" fill="none" stroke="#7c3aed" stroke-width="2.5"/>
<circle cx="102.40" cy="488.69" r="4" fill="#7c3aed"/>
<circle cx="171.20" cy="493.48" r="4" fill="#7c3aed"/>
<circle cx="240.00" cy="502.81" r="4" fill="#7c3aed"/>
<circle cx="308.80" cy="512.17" r="4" fill="#7c3aed"/>
<circle cx="377.60" cy="526.47" r="4" fill="#7c3aed"/>
<polyline points="102.40,490.91 171.20,522.34 240.00,529.04 308.80,536.59 377.60,560.31" fill="none" stroke="#dc2626" stroke-width="2.5"/>
<circle cx="102.40" cy="490.91" r="4" fill="#dc2626"/>
<circle cx="171.20" cy="522.34" r="4" fill="#dc2626"/>
<circle cx="240.00" cy="529.04" r="4" fill="#dc2626"/>
<circle cx="308.80" cy="536.59" r="4" fill="#dc2626"/>
<circle cx="377.60" cy="560.31" r="4" fill="#dc2626"/>
<text x="68.0" y="741.0" font-size="15" fill="#15803d" text-anchor="start" font-weight="bold">Latest cycle: STABLE TAIL</text>
<text x="493.0" y="211.0" font-size="20" fill="#182235" text-anchor="start" font-weight="bold">Fourier order M</text>
<line x1="493.00" y1="681.00" x2="837.00" y2="681.00" stroke="#e2e8f0" stroke-width="1"/>
<text x="484.0" y="686.0" font-size="12" fill="#475569" text-anchor="end" font-weight="normal">0.001</text>
<line x1="493.00" y1="590.80" x2="837.00" y2="590.80" stroke="#e2e8f0" stroke-width="1"/>
<text x="484.0" y="595.8" font-size="12" fill="#475569" text-anchor="end" font-weight="normal">0.01</text>
<line x1="493.00" y1="500.60" x2="837.00" y2="500.60" stroke="#e2e8f0" stroke-width="1"/>
<text x="484.0" y="505.6" font-size="12" fill="#475569" text-anchor="end" font-weight="normal">0.1</text>
<line x1="493.00" y1="410.40" x2="837.00" y2="410.40" stroke="#e2e8f0" stroke-width="1"/>
<text x="484.0" y="415.4" font-size="12" fill="#475569" text-anchor="end" font-weight="normal">1</text>
<line x1="493.00" y1="320.20" x2="837.00" y2="320.20" stroke="#e2e8f0" stroke-width="1"/>
<text x="484.0" y="325.2" font-size="12" fill="#475569" text-anchor="end" font-weight="normal">10</text>
<line x1="493.00" y1="230.00" x2="837.00" y2="230.00" stroke="#e2e8f0" stroke-width="1"/>
<text x="484.0" y="235.0" font-size="12" fill="#475569" text-anchor="end" font-weight="normal">100</text>
<line x1="493.00" y1="230.00" x2="493.00" y2="681.00" stroke="#64748b" stroke-width="1"/>
<line x1="493.00" y1="681.00" x2="837.00" y2="681.00" stroke="#64748b" stroke-width="1"/>
<line x1="493.00" y1="437.55" x2="837.00" y2="437.55" stroke="#111827" stroke-width="2" stroke-dasharray="7 5"/>
<line x1="514.50" y1="681.00" x2="514.50" y2="686.00" stroke="#64748b" stroke-width="1"/>
<text x="514.5" y="705.0" font-size="13" fill="#182235" text-anchor="middle" font-weight="normal">6</text>
<line x1="557.50" y1="681.00" x2="557.50" y2="686.00" stroke="#64748b" stroke-width="1"/>
<text x="557.5" y="705.0" font-size="13" fill="#182235" text-anchor="middle" font-weight="normal">8</text>
<line x1="600.50" y1="681.00" x2="600.50" y2="686.00" stroke="#64748b" stroke-width="1"/>
<text x="600.5" y="705.0" font-size="13" fill="#182235" text-anchor="middle" font-weight="normal">10</text>
<line x1="643.50" y1="681.00" x2="643.50" y2="686.00" stroke="#64748b" stroke-width="1"/>
<text x="643.5" y="705.0" font-size="13" fill="#182235" text-anchor="middle" font-weight="normal">12</text>
<line x1="686.50" y1="681.00" x2="686.50" y2="686.00" stroke="#64748b" stroke-width="1"/>
<text x="686.5" y="705.0" font-size="13" fill="#182235" text-anchor="middle" font-weight="normal">14</text>
<line x1="729.50" y1="681.00" x2="729.50" y2="686.00" stroke="#64748b" stroke-width="1"/>
<text x="729.5" y="705.0" font-size="13" fill="#182235" text-anchor="middle" font-weight="normal">16</text>
<line x1="772.50" y1="681.00" x2="772.50" y2="686.00" stroke="#64748b" stroke-width="1"/>
<text x="772.5" y="705.0" font-size="13" fill="#182235" text-anchor="middle" font-weight="normal">18</text>
<line x1="815.50" y1="681.00" x2="815.50" y2="686.00" stroke="#64748b" stroke-width="1"/>
<text x="815.5" y="705.0" font-size="13" fill="#182235" text-anchor="middle" font-weight="normal">20</text>
<polyline points="514.50,420.45 557.50,475.62 600.50,463.51 643.50,458.26 686.50,473.87 729.50,458.94 772.50,411.60 815.50,419.60" fill="none" stroke="#2563eb" stroke-width="2.5"/>
<circle cx="514.50" cy="420.45" r="4" fill="#2563eb"/>
<circle cx="557.50" cy="475.62" r="4" fill="#2563eb"/>
<circle cx="600.50" cy="463.51" r="4" fill="#2563eb"/>
<circle cx="643.50" cy="458.26" r="4" fill="#2563eb"/>
<circle cx="686.50" cy="473.87" r="4" fill="#2563eb"/>
<circle cx="729.50" cy="458.94" r="4" fill="#2563eb"/>
<circle cx="772.50" cy="411.60" r="4" fill="#2563eb"/>
<circle cx="815.50" cy="419.60" r="4" fill="#2563eb"/>
<polyline points="514.50,421.43 557.50,477.44 600.50,463.72 643.50,472.21 686.50,488.83 729.50,519.35 772.50,543.98 815.50,513.33" fill="none" stroke="#7c3aed" stroke-width="2.5"/>
<circle cx="514.50" cy="421.43" r="4" fill="#7c3aed"/>
<circle cx="557.50" cy="477.44" r="4" fill="#7c3aed"/>
<circle cx="600.50" cy="463.72" r="4" fill="#7c3aed"/>
<circle cx="643.50" cy="472.21" r="4" fill="#7c3aed"/>
<circle cx="686.50" cy="488.83" r="4" fill="#7c3aed"/>
<circle cx="729.50" cy="519.35" r="4" fill="#7c3aed"/>
<circle cx="772.50" cy="543.98" r="4" fill="#7c3aed"/>
<circle cx="815.50" cy="513.33" r="4" fill="#7c3aed"/>
<polyline points="514.50,420.45 557.50,475.62 600.50,463.51 643.50,458.26 686.50,473.87 729.50,458.94 772.50,411.60 815.50,419.60" fill="none" stroke="#dc2626" stroke-width="2.5"/>
<circle cx="514.50" cy="420.45" r="4" fill="#dc2626"/>
<circle cx="557.50" cy="475.62" r="4" fill="#dc2626"/>
<circle cx="600.50" cy="463.51" r="4" fill="#dc2626"/>
<circle cx="643.50" cy="458.26" r="4" fill="#dc2626"/>
<circle cx="686.50" cy="473.87" r="4" fill="#dc2626"/>
<circle cx="729.50" cy="458.94" r="4" fill="#dc2626"/>
<circle cx="772.50" cy="411.60" r="4" fill="#dc2626"/>
<circle cx="815.50" cy="419.60" r="4" fill="#dc2626"/>
<text x="493.0" y="741.0" font-size="15" fill="#b91c1c" text-anchor="start" font-weight="bold">Latest cycle: NOT STABLE</text>
<text x="918.0" y="211.0" font-size="20" fill="#182235" text-anchor="start" font-weight="bold">ASR grid</text>
<line x1="918.00" y1="681.00" x2="1262.00" y2="681.00" stroke="#e2e8f0" stroke-width="1"/>
<text x="909.0" y="686.0" font-size="12" fill="#475569" text-anchor="end" font-weight="normal">0.001</text>
<line x1="918.00" y1="590.80" x2="1262.00" y2="590.80" stroke="#e2e8f0" stroke-width="1"/>
<text x="909.0" y="595.8" font-size="12" fill="#475569" text-anchor="end" font-weight="normal">0.01</text>
<line x1="918.00" y1="500.60" x2="1262.00" y2="500.60" stroke="#e2e8f0" stroke-width="1"/>
<text x="909.0" y="505.6" font-size="12" fill="#475569" text-anchor="end" font-weight="normal">0.1</text>
<line x1="918.00" y1="410.40" x2="1262.00" y2="410.40" stroke="#e2e8f0" stroke-width="1"/>
<text x="909.0" y="415.4" font-size="12" fill="#475569" text-anchor="end" font-weight="normal">1</text>
<line x1="918.00" y1="320.20" x2="1262.00" y2="320.20" stroke="#e2e8f0" stroke-width="1"/>
<text x="909.0" y="325.2" font-size="12" fill="#475569" text-anchor="end" font-weight="normal">10</text>
<line x1="918.00" y1="230.00" x2="1262.00" y2="230.00" stroke="#e2e8f0" stroke-width="1"/>
<text x="909.0" y="235.0" font-size="12" fill="#475569" text-anchor="end" font-weight="normal">100</text>
<line x1="918.00" y1="230.00" x2="918.00" y2="681.00" stroke="#64748b" stroke-width="1"/>
<line x1="918.00" y1="681.00" x2="1262.00" y2="681.00" stroke="#64748b" stroke-width="1"/>
<line x1="918.00" y1="437.55" x2="1262.00" y2="437.55" stroke="#111827" stroke-width="2" stroke-dasharray="7 5"/>
<text x="1260.0" y="429.6" font-size="13" fill="#182235" text-anchor="end" font-weight="normal">tolerance</text>
<line x1="975.33" y1="681.00" x2="975.33" y2="686.00" stroke="#64748b" stroke-width="1"/>
<text x="975.3" y="705.0" font-size="13" fill="#182235" text-anchor="middle" font-weight="normal">128</text>
<line x1="1090.00" y1="681.00" x2="1090.00" y2="686.00" stroke="#64748b" stroke-width="1"/>
<text x="1090.0" y="705.0" font-size="13" fill="#182235" text-anchor="middle" font-weight="normal">192</text>
<line x1="1204.67" y1="681.00" x2="1204.67" y2="686.00" stroke="#64748b" stroke-width="1"/>
<text x="1204.7" y="705.0" font-size="13" fill="#182235" text-anchor="middle" font-weight="normal">256</text>
<polyline points="975.33,386.42 1090.00,406.43 1204.67,417.31" fill="none" stroke="#2563eb" stroke-width="2.5"/>
<circle cx="975.33" cy="386.42" r="4" fill="#2563eb"/>
<circle cx="1090.00" cy="406.43" r="4" fill="#2563eb"/>
<circle cx="1204.67" cy="417.31" r="4" fill="#2563eb"/>
<polyline points="975.33,527.98 1090.00,529.02 1204.67,561.26" fill="none" stroke="#7c3aed" stroke-width="2.5"/>
<circle cx="975.33" cy="527.98" r="4" fill="#7c3aed"/>
<circle cx="1090.00" cy="529.02" r="4" fill="#7c3aed"/>
<circle cx="1204.67" cy="561.26" r="4" fill="#7c3aed"/>
<polyline points="975.33,386.42 1090.00,406.43 1204.67,417.31" fill="none" stroke="#dc2626" stroke-width="2.5"/>
<circle cx="975.33" cy="386.42" r="4" fill="#dc2626"/>
<circle cx="1090.00" cy="406.43" r="4" fill="#dc2626"/>
<circle cx="1204.67" cy="417.31" r="4" fill="#dc2626"/>
<text x="918.0" y="741.0" font-size="15" fill="#b91c1c" text-anchor="start" font-weight="bold">Latest cycle: NOT STABLE</text>
<text x="48.0" y="789.0" font-size="14" fill="#475569" text-anchor="start" font-weight="normal">Vertical axis: percentage points (log scale); each point compares the labeled value with the previous candidate.</text>
</g>
</svg>
