<svg xmlns="http://www.w3.org/2000/svg" viewBox="0 0 1220 740" width="1220" height="740" role="img">
<rect width="100%" height="100%" fill="#ffffff"/>
<g font-family="Arial, Helvetica, sans-serif">
<text x="55.0" y="56.0" font-size="30" fill="#182235" text-anchor="start" font-weight="bold">Chromium moth-eye | optical response</text>
<text x="55.0" y="87.0" font-size="16" fill="#182235" text-anchor="start" font-weight="normal">Source: cr_motheye_anchor_spectrum.csv  |  3 wavelengths  |  M=20, Nz=60, grid=256</text>
<text x="55.0" y="116.0" font-size="16" fill="#b45309" text-anchor="start" font-weight="normal">Anchor wavelengths only: points are not interpolated</text>
<text x="55.0" y="144.0" font-size="16" fill="#b91c1c" text-anchor="start" font-weight="bold">PROVISIONAL: numerical convergence criterion has not been met</text>
<line x1="55.00" y1="178.00" x2="83.00" y2="178.00" stroke="#1d4ed8" stroke-width="3"/>
<circle cx="69.00" cy="178.00" r="3.5" fill="#1d4ed8"/>
<text x="91.0" y="183.0" font-size="15" fill="#182235" text-anchor="start" font-weight="normal">R</text>
<line x1="273.00" y1="178.00" x2="301.00" y2="178.00" stroke="#64748b" stroke-width="3"/>
<circle cx="287.00" cy="178.00" r="3.5" fill="#64748b"/>
<text x="309.0" y="183.0" font-size="15" fill="#182235" text-anchor="start" font-weight="normal">T far</text>
<line x1="491.00" y1="178.00" x2="519.00" y2="178.00" stroke="#dc2626" stroke-width="3"/>
<circle cx="505.00" cy="178.00" r="3.5" fill="#dc2626"/>
<text x="527.0" y="183.0" font-size="15" fill="#182235" text-anchor="start" font-weight="normal">A total</text>
<line x1="709.00" y1="178.00" x2="737.00" y2="178.00" stroke="#ea580c" stroke-width="3"/>
<circle cx="723.00" cy="178.00" r="3.5" fill="#ea580c"/>
<text x="745.0" y="183.0" font-size="15" fill="#182235" text-anchor="start" font-weight="normal">A moth-eye</text>
<line x1="927.00" y1="178.00" x2="955.00" y2="178.00" stroke="#16a34a" stroke-width="3"/>
<circle cx="941.00" cy="178.00" r="3.5" fill="#16a34a"/>
<text x="963.0" y="183.0" font-size="15" fill="#182235" text-anchor="start" font-weight="normal">A substrate</text>
<line x1="105.00" y1="630.00" x2="1135.00" y2="630.00" stroke="#e2e8f0" stroke-width="1"/>
<text x="91.0" y="635.0" font-size="13" fill="#475569" text-anchor="end" font-weight="normal">0%</text>
<line x1="105.00" y1="545.00" x2="1135.00" y2="545.00" stroke="#e2e8f0" stroke-width="1"/>
<text x="91.0" y="550.0" font-size="13" fill="#475569" text-anchor="end" font-weight="normal">20%</text>
<line x1="105.00" y1="460.00" x2="1135.00" y2="460.00" stroke="#e2e8f0" stroke-width="1"/>
<text x="91.0" y="465.0" font-size="13" fill="#475569" text-anchor="end" font-weight="normal">40%</text>
<line x1="105.00" y1="375.00" x2="1135.00" y2="375.00" stroke="#e2e8f0" stroke-width="1"/>
<text x="91.0" y="380.0" font-size="13" fill="#475569" text-anchor="end" font-weight="normal">60%</text>
<line x1="105.00" y1="290.00" x2="1135.00" y2="290.00" stroke="#e2e8f0" stroke-width="1"/>
<text x="91.0" y="295.0" font-size="13" fill="#475569" text-anchor="end" font-weight="normal">80%</text>
<line x1="105.00" y1="205.00" x2="1135.00" y2="205.00" stroke="#e2e8f0" stroke-width="1"/>
<text x="91.0" y="210.0" font-size="13" fill="#475569" text-anchor="end" font-weight="normal">100%</text>
<line x1="105.00" y1="205.00" x2="105.00" y2="630.00" stroke="#64748b" stroke-width="1"/>
<line x1="105.00" y1="630.00" x2="1135.00" y2="630.00" stroke="#64748b" stroke-width="1"/>
<line x1="143.15" y1="630.00" x2="143.15" y2="636.00" stroke="#64748b" stroke-width="1"/>
<text x="143.1" y="657.0" font-size="13" fill="#182235" text-anchor="middle" font-weight="normal">400</text>
<line x1="620.00" y1="630.00" x2="620.00" y2="636.00" stroke="#64748b" stroke-width="1"/>
<text x="620.0" y="657.0" font-size="13" fill="#182235" text-anchor="middle" font-weight="normal">550</text>
<line x1="1096.85" y1="630.00" x2="1096.85" y2="636.00" stroke="#64748b" stroke-width="1"/>
<text x="1096.9" y="657.0" font-size="13" fill="#182235" text-anchor="middle" font-weight="normal">700</text>
<circle cx="143.15" cy="628.49" r="5" fill="#1d4ed8"/>
<circle cx="620.00" cy="626.07" r="5" fill="#1d4ed8"/>
<circle cx="1096.85" cy="623.53" r="5" fill="#1d4ed8"/>
<circle cx="143.15" cy="630.00" r="5" fill="#64748b"/>
<circle cx="620.00" cy="630.00" r="5" fill="#64748b"/>
<circle cx="1096.85" cy="630.00" r="5" fill="#64748b"/>
<circle cx="143.15" cy="206.51" r="5" fill="#dc2626"/>
<circle cx="620.00" cy="208.93" r="5" fill="#dc2626"/>
<circle cx="1096.85" cy="211.47" r="5" fill="#dc2626"/>
<circle cx="143.15" cy="241.28" r="5" fill="#ea580c"/>
<circle cx="620.00" cy="257.00" r="5" fill="#ea580c"/>
<circle cx="1096.85" cy="271.73" r="5" fill="#ea580c"/>
<circle cx="143.15" cy="595.23" r="5" fill="#16a34a"/>
<circle cx="620.00" cy="581.93" r="5" fill="#16a34a"/>
<circle cx="1096.85" cy="569.74" r="5" fill="#16a34a"/>
<text x="620.0" y="700.0" font-size="17" fill="#182235" text-anchor="middle" font-weight="normal">Wavelength (nm)</text>
<text x="55.0" y="722.0" font-size="14" fill="#475569" text-anchor="start" font-weight="normal">For a semi-infinite Cr substrate, T far = 0 and A total = A moth-eye + A substrate.</text>
</g>
</svg>
