<svg xmlns="http://www.w3.org/2000/svg" width="1300" height="815" viewBox="0 0 1300 815">
<rect width="100%" height="100%" fill="#f7f9fc"/>
<text x="40.00" y="28.00" font-family="Arial,DejaVu Sans,sans-serif" font-size="25" font-weight="700" fill="#1f2b3a" text-anchor="start" dominant-baseline="hanging">Reflectance and transmittance vs Fourier order</text>
<text x="40.00" y="65.00" font-family="Arial,DejaVu Sans,sans-serif" font-size="13" font-weight="400" fill="#536579" text-anchor="start" dominant-baseline="hanging">100 profile layers + 1 Au top layer  |  Source: order_convergence_M10_M20_user_values.csv  |  Each panel has its own y scale</text>
<rect x="40.00" y="110.00" width="390.00" height="330.00" fill="#ffffff" stroke="#dce4ec"/>
<line x1="104.00" y1="386.00" x2="403.00" y2="386.00" stroke="#dce4ec" stroke-width="1"/>
<text x="96.00" y="379.00" font-family="Arial,DejaVu Sans,sans-serif" font-size="11" font-weight="400" fill="#536579" text-anchor="end" dominant-baseline="hanging">0.8293</text>
<line x1="104.00" y1="327.50" x2="403.00" y2="327.50" stroke="#dce4ec" stroke-width="1"/>
<text x="96.00" y="320.50" font-family="Arial,DejaVu Sans,sans-serif" font-size="11" font-weight="400" fill="#536579" text-anchor="end" dominant-baseline="hanging">0.8365</text>
<line x1="104.00" y1="269.00" x2="403.00" y2="269.00" stroke="#dce4ec" stroke-width="1"/>
<text x="96.00" y="262.00" font-family="Arial,DejaVu Sans,sans-serif" font-size="11" font-weight="400" fill="#536579" text-anchor="end" dominant-baseline="hanging">0.8438</text>
<line x1="104.00" y1="210.50" x2="403.00" y2="210.50" stroke="#dce4ec" stroke-width="1"/>
<text x="96.00" y="203.50" font-family="Arial,DejaVu Sans,sans-serif" font-size="11" font-weight="400" fill="#536579" text-anchor="end" dominant-baseline="hanging">0.851</text>
<line x1="104.00" y1="152.00" x2="403.00" y2="152.00" stroke="#dce4ec" stroke-width="1"/>
<text x="96.00" y="145.00" font-family="Arial,DejaVu Sans,sans-serif" font-size="11" font-weight="400" fill="#536579" text-anchor="end" dominant-baseline="hanging">0.8583</text>
<line x1="104.00" y1="152.00" x2="104.00" y2="386.00" stroke="#eef1f5" stroke-width="1"/>
<text x="104.00" y="393.00" font-family="Arial,DejaVu Sans,sans-serif" font-size="12" font-weight="400" fill="#536579" text-anchor="middle" dominant-baseline="hanging">10</text>
<line x1="163.80" y1="152.00" x2="163.80" y2="386.00" stroke="#eef1f5" stroke-width="1"/>
<text x="163.80" y="393.00" font-family="Arial,DejaVu Sans,sans-serif" font-size="12" font-weight="400" fill="#536579" text-anchor="middle" dominant-baseline="hanging">12</text>
<line x1="223.60" y1="152.00" x2="223.60" y2="386.00" stroke="#eef1f5" stroke-width="1"/>
<text x="223.60" y="393.00" font-family="Arial,DejaVu Sans,sans-serif" font-size="12" font-weight="400" fill="#536579" text-anchor="middle" dominant-baseline="hanging">14</text>
<line x1="283.40" y1="152.00" x2="283.40" y2="386.00" stroke="#eef1f5" stroke-width="1"/>
<text x="283.40" y="393.00" font-family="Arial,DejaVu Sans,sans-serif" font-size="12" font-weight="400" fill="#536579" text-anchor="middle" dominant-baseline="hanging">16</text>
<line x1="343.20" y1="152.00" x2="343.20" y2="386.00" stroke="#eef1f5" stroke-width="1"/>
<text x="343.20" y="393.00" font-family="Arial,DejaVu Sans,sans-serif" font-size="12" font-weight="400" fill="#536579" text-anchor="middle" dominant-baseline="hanging">18</text>
<line x1="403.00" y1="152.00" x2="403.00" y2="386.00" stroke="#eef1f5" stroke-width="1"/>
<text x="403.00" y="393.00" font-family="Arial,DejaVu Sans,sans-serif" font-size="12" font-weight="400" fill="#536579" text-anchor="middle" dominant-baseline="hanging">20</text>
<line x1="104.00" y1="386.00" x2="403.00" y2="386.00" stroke="#536579" stroke-width="1"/>
<text x="253.50" y="414.00" font-family="Arial,DejaVu Sans,sans-serif" font-size="12" font-weight="400" fill="#536579" text-anchor="middle" dominant-baseline="hanging">Fourier order M</text>
<text x="55.00" y="120.00" font-family="Arial,DejaVu Sans,sans-serif" font-size="17" font-weight="700" fill="#1769aa" text-anchor="start" dominant-baseline="hanging">450 nm  |  R (%)</text>
<line x1="104.00" y1="220.10" x2="163.80" y2="245.89" stroke="#1769aa" stroke-width="2.5"/>
<line x1="163.80" y1="245.89" x2="223.60" y2="317.90" stroke="#1769aa" stroke-width="2.5"/>
<line x1="223.60" y1="317.90" x2="283.40" y2="270.56" stroke="#1769aa" stroke-width="2.5"/>
<line x1="283.40" y1="270.56" x2="343.20" y2="281.13" stroke="#1769aa" stroke-width="2.5"/>
<line x1="343.20" y1="281.13" x2="403.00" y2="278.35" stroke="#1769aa" stroke-width="2.5"/>
<circle cx="104.00" cy="220.10" r="4.20" fill="#1769aa"/>
<circle cx="163.80" cy="245.89" r="4.20" fill="#1769aa"/>
<circle cx="223.60" cy="317.90" r="4.20" fill="#1769aa"/>
<circle cx="283.40" cy="270.56" r="4.20" fill="#1769aa"/>
<circle cx="343.20" cy="281.13" r="4.20" fill="#1769aa"/>
<circle cx="403.00" cy="278.35" r="4.20" fill="#1769aa"/>
<rect x="40.00" y="462.00" width="390.00" height="330.00" fill="#ffffff" stroke="#dce4ec"/>
<line x1="104.00" y1="738.00" x2="403.00" y2="738.00" stroke="#dce4ec" stroke-width="1"/>
<text x="96.00" y="731.00" font-family="Arial,DejaVu Sans,sans-serif" font-size="11" font-weight="400" fill="#536579" text-anchor="end" dominant-baseline="hanging">2.032</text>
<line x1="104.00" y1="679.50" x2="403.00" y2="679.50" stroke="#dce4ec" stroke-width="1"/>
<text x="96.00" y="672.50" font-family="Arial,DejaVu Sans,sans-serif" font-size="11" font-weight="400" fill="#536579" text-anchor="end" dominant-baseline="hanging">2.075</text>
<line x1="104.00" y1="621.00" x2="403.00" y2="621.00" stroke="#dce4ec" stroke-width="1"/>
<text x="96.00" y="614.00" font-family="Arial,DejaVu Sans,sans-serif" font-size="11" font-weight="400" fill="#536579" text-anchor="end" dominant-baseline="hanging">2.117</text>
<line x1="104.00" y1="562.50" x2="403.00" y2="562.50" stroke="#dce4ec" stroke-width="1"/>
<text x="96.00" y="555.50" font-family="Arial,DejaVu Sans,sans-serif" font-size="11" font-weight="400" fill="#536579" text-anchor="end" dominant-baseline="hanging">2.16</text>
<line x1="104.00" y1="504.00" x2="403.00" y2="504.00" stroke="#dce4ec" stroke-width="1"/>
<text x="96.00" y="497.00" font-family="Arial,DejaVu Sans,sans-serif" font-size="11" font-weight="400" fill="#536579" text-anchor="end" dominant-baseline="hanging">2.203</text>
<line x1="104.00" y1="504.00" x2="104.00" y2="738.00" stroke="#eef1f5" stroke-width="1"/>
<text x="104.00" y="745.00" font-family="Arial,DejaVu Sans,sans-serif" font-size="12" font-weight="400" fill="#536579" text-anchor="middle" dominant-baseline="hanging">10</text>
<line x1="163.80" y1="504.00" x2="163.80" y2="738.00" stroke="#eef1f5" stroke-width="1"/>
<text x="163.80" y="745.00" font-family="Arial,DejaVu Sans,sans-serif" font-size="12" font-weight="400" fill="#536579" text-anchor="middle" dominant-baseline="hanging">12</text>
<line x1="223.60" y1="504.00" x2="223.60" y2="738.00" stroke="#eef1f5" stroke-width="1"/>
<text x="223.60" y="745.00" font-family="Arial,DejaVu Sans,sans-serif" font-size="12" font-weight="400" fill="#536579" text-anchor="middle" dominant-baseline="hanging">14</text>
<line x1="283.40" y1="504.00" x2="283.40" y2="738.00" stroke="#eef1f5" stroke-width="1"/>
<text x="283.40" y="745.00" font-family="Arial,DejaVu Sans,sans-serif" font-size="12" font-weight="400" fill="#536579" text-anchor="middle" dominant-baseline="hanging">16</text>
<line x1="343.20" y1="504.00" x2="343.20" y2="738.00" stroke="#eef1f5" stroke-width="1"/>
<text x="343.20" y="745.00" font-family="Arial,DejaVu Sans,sans-serif" font-size="12" font-weight="400" fill="#536579" text-anchor="middle" dominant-baseline="hanging">18</text>
<line x1="403.00" y1="504.00" x2="403.00" y2="738.00" stroke="#eef1f5" stroke-width="1"/>
<text x="403.00" y="745.00" font-family="Arial,DejaVu Sans,sans-serif" font-size="12" font-weight="400" fill="#536579" text-anchor="middle" dominant-baseline="hanging">20</text>
<line x1="104.00" y1="738.00" x2="403.00" y2="738.00" stroke="#536579" stroke-width="1"/>
<text x="253.50" y="766.00" font-family="Arial,DejaVu Sans,sans-serif" font-size="12" font-weight="400" fill="#536579" text-anchor="middle" dominant-baseline="hanging">Fourier order M</text>
<text x="55.00" y="472.00" font-family="Arial,DejaVu Sans,sans-serif" font-size="17" font-weight="700" fill="#c46a13" text-anchor="start" dominant-baseline="hanging">450 nm  |  T (%)</text>
<line x1="104.00" y1="533.11" x2="163.80" y2="549.85" stroke="#c46a13" stroke-width="2.5"/>
<line x1="163.80" y1="549.85" x2="223.60" y2="583.75" stroke="#c46a13" stroke-width="2.5"/>
<line x1="223.60" y1="583.75" x2="283.40" y2="639.61" stroke="#c46a13" stroke-width="2.5"/>
<line x1="283.40" y1="639.61" x2="343.20" y2="688.95" stroke="#c46a13" stroke-width="2.5"/>
<line x1="343.20" y1="688.95" x2="403.00" y2="708.89" stroke="#c46a13" stroke-width="2.5"/>
<circle cx="104.00" cy="533.11" r="4.20" fill="#c46a13"/>
<circle cx="163.80" cy="549.85" r="4.20" fill="#c46a13"/>
<circle cx="223.60" cy="583.75" r="4.20" fill="#c46a13"/>
<circle cx="283.40" cy="639.61" r="4.20" fill="#c46a13"/>
<circle cx="343.20" cy="688.95" r="4.20" fill="#c46a13"/>
<circle cx="403.00" cy="708.89" r="4.20" fill="#c46a13"/>
<rect x="455.00" y="110.00" width="390.00" height="330.00" fill="#ffffff" stroke="#dce4ec"/>
<line x1="519.00" y1="386.00" x2="818.00" y2="386.00" stroke="#dce4ec" stroke-width="1"/>
<text x="511.00" y="379.00" font-family="Arial,DejaVu Sans,sans-serif" font-size="11" font-weight="400" fill="#536579" text-anchor="end" dominant-baseline="hanging">1.678</text>
<line x1="519.00" y1="327.50" x2="818.00" y2="327.50" stroke="#dce4ec" stroke-width="1"/>
<text x="511.00" y="320.50" font-family="Arial,DejaVu Sans,sans-serif" font-size="11" font-weight="400" fill="#536579" text-anchor="end" dominant-baseline="hanging">1.768</text>
<line x1="519.00" y1="269.00" x2="818.00" y2="269.00" stroke="#dce4ec" stroke-width="1"/>
<text x="511.00" y="262.00" font-family="Arial,DejaVu Sans,sans-serif" font-size="11" font-weight="400" fill="#536579" text-anchor="end" dominant-baseline="hanging">1.859</text>
<line x1="519.00" y1="210.50" x2="818.00" y2="210.50" stroke="#dce4ec" stroke-width="1"/>
<text x="511.00" y="203.50" font-family="Arial,DejaVu Sans,sans-serif" font-size="11" font-weight="400" fill="#536579" text-anchor="end" dominant-baseline="hanging">1.949</text>
<line x1="519.00" y1="152.00" x2="818.00" y2="152.00" stroke="#dce4ec" stroke-width="1"/>
<text x="511.00" y="145.00" font-family="Arial,DejaVu Sans,sans-serif" font-size="11" font-weight="400" fill="#536579" text-anchor="end" dominant-baseline="hanging">2.04</text>
<line x1="519.00" y1="152.00" x2="519.00" y2="386.00" stroke="#eef1f5" stroke-width="1"/>
<text x="519.00" y="393.00" font-family="Arial,DejaVu Sans,sans-serif" font-size="12" font-weight="400" fill="#536579" text-anchor="middle" dominant-baseline="hanging">10</text>
<line x1="578.80" y1="152.00" x2="578.80" y2="386.00" stroke="#eef1f5" stroke-width="1"/>
<text x="578.80" y="393.00" font-family="Arial,DejaVu Sans,sans-serif" font-size="12" font-weight="400" fill="#536579" text-anchor="middle" dominant-baseline="hanging">12</text>
<line x1="638.60" y1="152.00" x2="638.60" y2="386.00" stroke="#eef1f5" stroke-width="1"/>
<text x="638.60" y="393.00" font-family="Arial,DejaVu Sans,sans-serif" font-size="12" font-weight="400" fill="#536579" text-anchor="middle" dominant-baseline="hanging">14</text>
<line x1="698.40" y1="152.00" x2="698.40" y2="386.00" stroke="#eef1f5" stroke-width="1"/>
<text x="698.40" y="393.00" font-family="Arial,DejaVu Sans,sans-serif" font-size="12" font-weight="400" fill="#536579" text-anchor="middle" dominant-baseline="hanging">16</text>
<line x1="758.20" y1="152.00" x2="758.20" y2="386.00" stroke="#eef1f5" stroke-width="1"/>
<text x="758.20" y="393.00" font-family="Arial,DejaVu Sans,sans-serif" font-size="12" font-weight="400" fill="#536579" text-anchor="middle" dominant-baseline="hanging">18</text>
<line x1="818.00" y1="152.00" x2="818.00" y2="386.00" stroke="#eef1f5" stroke-width="1"/>
<text x="818.00" y="393.00" font-family="Arial,DejaVu Sans,sans-serif" font-size="12" font-weight="400" fill="#536579" text-anchor="middle" dominant-baseline="hanging">20</text>
<line x1="519.00" y1="386.00" x2="818.00" y2="386.00" stroke="#536579" stroke-width="1"/>
<text x="668.50" y="414.00" font-family="Arial,DejaVu Sans,sans-serif" font-size="12" font-weight="400" fill="#536579" text-anchor="middle" dominant-baseline="hanging">Fourier order M</text>
<text x="470.00" y="120.00" font-family="Arial,DejaVu Sans,sans-serif" font-size="17" font-weight="700" fill="#1769aa" text-anchor="start" dominant-baseline="hanging">550 nm  |  R (%)</text>
<line x1="519.00" y1="211.49" x2="578.80" y2="359.00" stroke="#1769aa" stroke-width="2.5"/>
<line x1="578.80" y1="359.00" x2="638.60" y2="235.20" stroke="#1769aa" stroke-width="2.5"/>
<line x1="638.60" y1="235.20" x2="698.40" y2="179.00" stroke="#1769aa" stroke-width="2.5"/>
<line x1="698.40" y1="179.00" x2="758.20" y2="205.00" stroke="#1769aa" stroke-width="2.5"/>
<line x1="758.20" y1="205.00" x2="818.00" y2="188.79" stroke="#1769aa" stroke-width="2.5"/>
<circle cx="519.00" cy="211.49" r="4.20" fill="#1769aa"/>
<circle cx="578.80" cy="359.00" r="4.20" fill="#1769aa"/>
<circle cx="638.60" cy="235.20" r="4.20" fill="#1769aa"/>
<circle cx="698.40" cy="179.00" r="4.20" fill="#1769aa"/>
<circle cx="758.20" cy="205.00" r="4.20" fill="#1769aa"/>
<circle cx="818.00" cy="188.79" r="4.20" fill="#1769aa"/>
<rect x="455.00" y="462.00" width="390.00" height="330.00" fill="#ffffff" stroke="#dce4ec"/>
<line x1="519.00" y1="738.00" x2="818.00" y2="738.00" stroke="#dce4ec" stroke-width="1"/>
<text x="511.00" y="731.00" font-family="Arial,DejaVu Sans,sans-serif" font-size="11" font-weight="400" fill="#536579" text-anchor="end" dominant-baseline="hanging">3.716</text>
<line x1="519.00" y1="679.50" x2="818.00" y2="679.50" stroke="#dce4ec" stroke-width="1"/>
<text x="511.00" y="672.50" font-family="Arial,DejaVu Sans,sans-serif" font-size="11" font-weight="400" fill="#536579" text-anchor="end" dominant-baseline="hanging">3.969</text>
<line x1="519.00" y1="621.00" x2="818.00" y2="621.00" stroke="#dce4ec" stroke-width="1"/>
<text x="511.00" y="614.00" font-family="Arial,DejaVu Sans,sans-serif" font-size="11" font-weight="400" fill="#536579" text-anchor="end" dominant-baseline="hanging">4.221</text>
<line x1="519.00" y1="562.50" x2="818.00" y2="562.50" stroke="#dce4ec" stroke-width="1"/>
<text x="511.00" y="555.50" font-family="Arial,DejaVu Sans,sans-serif" font-size="11" font-weight="400" fill="#536579" text-anchor="end" dominant-baseline="hanging">4.474</text>
<line x1="519.00" y1="504.00" x2="818.00" y2="504.00" stroke="#dce4ec" stroke-width="1"/>
<text x="511.00" y="497.00" font-family="Arial,DejaVu Sans,sans-serif" font-size="11" font-weight="400" fill="#536579" text-anchor="end" dominant-baseline="hanging">4.726</text>
<line x1="519.00" y1="504.00" x2="519.00" y2="738.00" stroke="#eef1f5" stroke-width="1"/>
<text x="519.00" y="745.00" font-family="Arial,DejaVu Sans,sans-serif" font-size="12" font-weight="400" fill="#536579" text-anchor="middle" dominant-baseline="hanging">10</text>
<line x1="578.80" y1="504.00" x2="578.80" y2="738.00" stroke="#eef1f5" stroke-width="1"/>
<text x="578.80" y="745.00" font-family="Arial,DejaVu Sans,sans-serif" font-size="12" font-weight="400" fill="#536579" text-anchor="middle" dominant-baseline="hanging">12</text>
<line x1="638.60" y1="504.00" x2="638.60" y2="738.00" stroke="#eef1f5" stroke-width="1"/>
<text x="638.60" y="745.00" font-family="Arial,DejaVu Sans,sans-serif" font-size="12" font-weight="400" fill="#536579" text-anchor="middle" dominant-baseline="hanging">14</text>
<line x1="698.40" y1="504.00" x2="698.40" y2="738.00" stroke="#eef1f5" stroke-width="1"/>
<text x="698.40" y="745.00" font-family="Arial,DejaVu Sans,sans-serif" font-size="12" font-weight="400" fill="#536579" text-anchor="middle" dominant-baseline="hanging">16</text>
<line x1="758.20" y1="504.00" x2="758.20" y2="738.00" stroke="#eef1f5" stroke-width="1"/>
<text x="758.20" y="745.00" font-family="Arial,DejaVu Sans,sans-serif" font-size="12" font-weight="400" fill="#536579" text-anchor="middle" dominant-baseline="hanging">18</text>
<line x1="818.00" y1="504.00" x2="818.00" y2="738.00" stroke="#eef1f5" stroke-width="1"/>
<text x="818.00" y="745.00" font-family="Arial,DejaVu Sans,sans-serif" font-size="12" font-weight="400" fill="#536579" text-anchor="middle" dominant-baseline="hanging">20</text>
<line x1="519.00" y1="738.00" x2="818.00" y2="738.00" stroke="#536579" stroke-width="1"/>
<text x="668.50" y="766.00" font-family="Arial,DejaVu Sans,sans-serif" font-size="12" font-weight="400" fill="#536579" text-anchor="middle" dominant-baseline="hanging">Fourier order M</text>
<text x="470.00" y="472.00" font-family="Arial,DejaVu Sans,sans-serif" font-size="17" font-weight="700" fill="#c46a13" text-anchor="start" dominant-baseline="hanging">550 nm  |  T (%)</text>
<line x1="519.00" y1="531.00" x2="578.80" y2="642.54" stroke="#c46a13" stroke-width="2.5"/>
<line x1="578.80" y1="642.54" x2="638.60" y2="610.55" stroke="#c46a13" stroke-width="2.5"/>
<line x1="638.60" y1="610.55" x2="698.40" y2="638.57" stroke="#c46a13" stroke-width="2.5"/>
<line x1="698.40" y1="638.57" x2="758.20" y2="675.66" stroke="#c46a13" stroke-width="2.5"/>
<line x1="758.20" y1="675.66" x2="818.00" y2="711.00" stroke="#c46a13" stroke-width="2.5"/>
<circle cx="519.00" cy="531.00" r="4.20" fill="#c46a13"/>
<circle cx="578.80" cy="642.54" r="4.20" fill="#c46a13"/>
<circle cx="638.60" cy="610.55" r="4.20" fill="#c46a13"/>
<circle cx="698.40" cy="638.57" r="4.20" fill="#c46a13"/>
<circle cx="758.20" cy="675.66" r="4.20" fill="#c46a13"/>
<circle cx="818.00" cy="711.00" r="4.20" fill="#c46a13"/>
<rect x="870.00" y="110.00" width="390.00" height="330.00" fill="#ffffff" stroke="#dce4ec"/>
<line x1="934.00" y1="386.00" x2="1233.00" y2="386.00" stroke="#dce4ec" stroke-width="1"/>
<text x="926.00" y="379.00" font-family="Arial,DejaVu Sans,sans-serif" font-size="11" font-weight="400" fill="#536579" text-anchor="end" dominant-baseline="hanging">48.98</text>
<line x1="934.00" y1="327.50" x2="1233.00" y2="327.50" stroke="#dce4ec" stroke-width="1"/>
<text x="926.00" y="320.50" font-family="Arial,DejaVu Sans,sans-serif" font-size="11" font-weight="400" fill="#536579" text-anchor="end" dominant-baseline="hanging">52.56</text>
<line x1="934.00" y1="269.00" x2="1233.00" y2="269.00" stroke="#dce4ec" stroke-width="1"/>
<text x="926.00" y="262.00" font-family="Arial,DejaVu Sans,sans-serif" font-size="11" font-weight="400" fill="#536579" text-anchor="end" dominant-baseline="hanging">56.13</text>
<line x1="934.00" y1="210.50" x2="1233.00" y2="210.50" stroke="#dce4ec" stroke-width="1"/>
<text x="926.00" y="203.50" font-family="Arial,DejaVu Sans,sans-serif" font-size="11" font-weight="400" fill="#536579" text-anchor="end" dominant-baseline="hanging">59.71</text>
<line x1="934.00" y1="152.00" x2="1233.00" y2="152.00" stroke="#dce4ec" stroke-width="1"/>
<text x="926.00" y="145.00" font-family="Arial,DejaVu Sans,sans-serif" font-size="11" font-weight="400" fill="#536579" text-anchor="end" dominant-baseline="hanging">63.28</text>
<line x1="934.00" y1="152.00" x2="934.00" y2="386.00" stroke="#eef1f5" stroke-width="1"/>
<text x="934.00" y="393.00" font-family="Arial,DejaVu Sans,sans-serif" font-size="12" font-weight="400" fill="#536579" text-anchor="middle" dominant-baseline="hanging">10</text>
<line x1="993.80" y1="152.00" x2="993.80" y2="386.00" stroke="#eef1f5" stroke-width="1"/>
<text x="993.80" y="393.00" font-family="Arial,DejaVu Sans,sans-serif" font-size="12" font-weight="400" fill="#536579" text-anchor="middle" dominant-baseline="hanging">12</text>
<line x1="1053.60" y1="152.00" x2="1053.60" y2="386.00" stroke="#eef1f5" stroke-width="1"/>
<text x="1053.60" y="393.00" font-family="Arial,DejaVu Sans,sans-serif" font-size="12" font-weight="400" fill="#536579" text-anchor="middle" dominant-baseline="hanging">14</text>
<line x1="1113.40" y1="152.00" x2="1113.40" y2="386.00" stroke="#eef1f5" stroke-width="1"/>
<text x="1113.40" y="393.00" font-family="Arial,DejaVu Sans,sans-serif" font-size="12" font-weight="400" fill="#536579" text-anchor="middle" dominant-baseline="hanging">16</text>
<line x1="1173.20" y1="152.00" x2="1173.20" y2="386.00" stroke="#eef1f5" stroke-width="1"/>
<text x="1173.20" y="393.00" font-family="Arial,DejaVu Sans,sans-serif" font-size="12" font-weight="400" fill="#536579" text-anchor="middle" dominant-baseline="hanging">18</text>
<line x1="1233.00" y1="152.00" x2="1233.00" y2="386.00" stroke="#eef1f5" stroke-width="1"/>
<text x="1233.00" y="393.00" font-family="Arial,DejaVu Sans,sans-serif" font-size="12" font-weight="400" fill="#536579" text-anchor="middle" dominant-baseline="hanging">20</text>
<line x1="934.00" y1="386.00" x2="1233.00" y2="386.00" stroke="#536579" stroke-width="1"/>
<text x="1083.50" y="414.00" font-family="Arial,DejaVu Sans,sans-serif" font-size="12" font-weight="400" fill="#536579" text-anchor="middle" dominant-baseline="hanging">Fourier order M</text>
<text x="885.00" y="120.00" font-family="Arial,DejaVu Sans,sans-serif" font-size="17" font-weight="700" fill="#1769aa" text-anchor="start" dominant-baseline="hanging">700 nm  |  R (%)</text>
<line x1="934.00" y1="359.00" x2="993.80" y2="199.97" stroke="#1769aa" stroke-width="2.5"/>
<line x1="993.80" y1="199.97" x2="1053.60" y2="217.50" stroke="#1769aa" stroke-width="2.5"/>
<line x1="1053.60" y1="217.50" x2="1113.40" y2="275.49" stroke="#1769aa" stroke-width="2.5"/>
<line x1="1113.40" y1="275.49" x2="1173.20" y2="202.92" stroke="#1769aa" stroke-width="2.5"/>
<line x1="1173.20" y1="202.92" x2="1233.00" y2="179.00" stroke="#1769aa" stroke-width="2.5"/>
<circle cx="934.00" cy="359.00" r="4.20" fill="#1769aa"/>
<circle cx="993.80" cy="199.97" r="4.20" fill="#1769aa"/>
<circle cx="1053.60" cy="217.50" r="4.20" fill="#1769aa"/>
<circle cx="1113.40" cy="275.49" r="4.20" fill="#1769aa"/>
<circle cx="1173.20" cy="202.92" r="4.20" fill="#1769aa"/>
<circle cx="1233.00" cy="179.00" r="4.20" fill="#1769aa"/>
<rect x="870.00" y="462.00" width="390.00" height="330.00" fill="#ffffff" stroke="#dce4ec"/>
<line x1="934.00" y1="738.00" x2="1233.00" y2="738.00" stroke="#dce4ec" stroke-width="1"/>
<text x="926.00" y="731.00" font-family="Arial,DejaVu Sans,sans-serif" font-size="11" font-weight="400" fill="#536579" text-anchor="end" dominant-baseline="hanging">4.409</text>
<line x1="934.00" y1="679.50" x2="1233.00" y2="679.50" stroke="#dce4ec" stroke-width="1"/>
<text x="926.00" y="672.50" font-family="Arial,DejaVu Sans,sans-serif" font-size="11" font-weight="400" fill="#536579" text-anchor="end" dominant-baseline="hanging">4.872</text>
<line x1="934.00" y1="621.00" x2="1233.00" y2="621.00" stroke="#dce4ec" stroke-width="1"/>
<text x="926.00" y="614.00" font-family="Arial,DejaVu Sans,sans-serif" font-size="11" font-weight="400" fill="#536579" text-anchor="end" dominant-baseline="hanging">5.335</text>
<line x1="934.00" y1="562.50" x2="1233.00" y2="562.50" stroke="#dce4ec" stroke-width="1"/>
<text x="926.00" y="555.50" font-family="Arial,DejaVu Sans,sans-serif" font-size="11" font-weight="400" fill="#536579" text-anchor="end" dominant-baseline="hanging">5.798</text>
<line x1="934.00" y1="504.00" x2="1233.00" y2="504.00" stroke="#dce4ec" stroke-width="1"/>
<text x="926.00" y="497.00" font-family="Arial,DejaVu Sans,sans-serif" font-size="11" font-weight="400" fill="#536579" text-anchor="end" dominant-baseline="hanging">6.261</text>
<line x1="934.00" y1="504.00" x2="934.00" y2="738.00" stroke="#eef1f5" stroke-width="1"/>
<text x="934.00" y="745.00" font-family="Arial,DejaVu Sans,sans-serif" font-size="12" font-weight="400" fill="#536579" text-anchor="middle" dominant-baseline="hanging">10</text>
<line x1="993.80" y1="504.00" x2="993.80" y2="738.00" stroke="#eef1f5" stroke-width="1"/>
<text x="993.80" y="745.00" font-family="Arial,DejaVu Sans,sans-serif" font-size="12" font-weight="400" fill="#536579" text-anchor="middle" dominant-baseline="hanging">12</text>
<line x1="1053.60" y1="504.00" x2="1053.60" y2="738.00" stroke="#eef1f5" stroke-width="1"/>
<text x="1053.60" y="745.00" font-family="Arial,DejaVu Sans,sans-serif" font-size="12" font-weight="400" fill="#536579" text-anchor="middle" dominant-baseline="hanging">14</text>
<line x1="1113.40" y1="504.00" x2="1113.40" y2="738.00" stroke="#eef1f5" stroke-width="1"/>
<text x="1113.40" y="745.00" font-family="Arial,DejaVu Sans,sans-serif" font-size="12" font-weight="400" fill="#536579" text-anchor="middle" dominant-baseline="hanging">16</text>
<line x1="1173.20" y1="504.00" x2="1173.20" y2="738.00" stroke="#eef1f5" stroke-width="1"/>
<text x="1173.20" y="745.00" font-family="Arial,DejaVu Sans,sans-serif" font-size="12" font-weight="400" fill="#536579" text-anchor="middle" dominant-baseline="hanging">18</text>
<line x1="1233.00" y1="504.00" x2="1233.00" y2="738.00" stroke="#eef1f5" stroke-width="1"/>
<text x="1233.00" y="745.00" font-family="Arial,DejaVu Sans,sans-serif" font-size="12" font-weight="400" fill="#536579" text-anchor="middle" dominant-baseline="hanging">20</text>
<line x1="934.00" y1="738.00" x2="1233.00" y2="738.00" stroke="#536579" stroke-width="1"/>
<text x="1083.50" y="766.00" font-family="Arial,DejaVu Sans,sans-serif" font-size="12" font-weight="400" fill="#536579" text-anchor="middle" dominant-baseline="hanging">Fourier order M</text>
<text x="885.00" y="472.00" font-family="Arial,DejaVu Sans,sans-serif" font-size="17" font-weight="700" fill="#c46a13" text-anchor="start" dominant-baseline="hanging">700 nm  |  T (%)</text>
<line x1="934.00" y1="531.00" x2="993.80" y2="711.00" stroke="#c46a13" stroke-width="2.5"/>
<line x1="993.80" y1="711.00" x2="1053.60" y2="559.45" stroke="#c46a13" stroke-width="2.5"/>
<line x1="1053.60" y1="559.45" x2="1113.40" y2="666.49" stroke="#c46a13" stroke-width="2.5"/>
<line x1="1113.40" y1="666.49" x2="1173.20" y2="590.33" stroke="#c46a13" stroke-width="2.5"/>
<line x1="1173.20" y1="590.33" x2="1233.00" y2="628.41" stroke="#c46a13" stroke-width="2.5"/>
<circle cx="934.00" cy="531.00" r="4.20" fill="#c46a13"/>
<circle cx="993.80" cy="711.00" r="4.20" fill="#c46a13"/>
<circle cx="1053.60" cy="559.45" r="4.20" fill="#c46a13"/>
<circle cx="1113.40" cy="666.49" r="4.20" fill="#c46a13"/>
<circle cx="1173.20" cy="590.33" r="4.20" fill="#c46a13"/>
<circle cx="1233.00" cy="628.41" r="4.20" fill="#c46a13"/>
</svg>